<mxfile host="app.diagrams.net" modified="2021-09-13T19:24:00.080Z" agent="5.0 (Windows NT 10.0; Win64; x64) AppleWebKit/537.36 (KHTML, like Gecko) Chrome/93.0.4577.63 Safari/537.36" etag="Ev0mM1uflcNFjaqOeCam" version="15.2.4" type="github">
  <diagram id="EQzDL-0kYwCtWBtYzEn2" name="Page-1">
    <mxGraphModel dx="1447" dy="750" grid="1" gridSize="10" guides="1" tooltips="1" connect="1" arrows="1" fold="1" page="1" pageScale="1" pageWidth="827" pageHeight="1169" math="0" shadow="0">
      <root>
        <mxCell id="0" />
        <mxCell id="1" parent="0" />
        <mxCell id="Nd2pnIqYuC5M-7utuZWH-4" value="" style="edgeStyle=orthogonalEdgeStyle;rounded=0;orthogonalLoop=1;jettySize=auto;html=1;" edge="1" parent="1" source="Nd2pnIqYuC5M-7utuZWH-1" target="Nd2pnIqYuC5M-7utuZWH-3">
          <mxGeometry relative="1" as="geometry" />
        </mxCell>
        <mxCell id="Nd2pnIqYuC5M-7utuZWH-1" value="Início" style="ellipse;whiteSpace=wrap;html=1;fillColor=#dae8fc;strokeColor=#6c8ebf;" vertex="1" parent="1">
          <mxGeometry x="55" y="10" width="170" height="100" as="geometry" />
        </mxCell>
        <mxCell id="Nd2pnIqYuC5M-7utuZWH-7" value="" style="edgeStyle=orthogonalEdgeStyle;rounded=0;orthogonalLoop=1;jettySize=auto;html=1;" edge="1" parent="1" source="Nd2pnIqYuC5M-7utuZWH-3">
          <mxGeometry relative="1" as="geometry">
            <mxPoint x="140" y="290" as="targetPoint" />
          </mxGeometry>
        </mxCell>
        <mxCell id="Nd2pnIqYuC5M-7utuZWH-3" value="Informe a data do evento" style="strokeWidth=2;html=1;shape=mxgraph.flowchart.display;whiteSpace=wrap;" vertex="1" parent="1">
          <mxGeometry x="45" y="140" width="190" height="120" as="geometry" />
        </mxCell>
        <mxCell id="Nd2pnIqYuC5M-7utuZWH-9" value="" style="edgeStyle=orthogonalEdgeStyle;rounded=0;orthogonalLoop=1;jettySize=auto;html=1;" edge="1" parent="1" target="Nd2pnIqYuC5M-7utuZWH-8">
          <mxGeometry relative="1" as="geometry">
            <mxPoint x="140" y="370" as="sourcePoint" />
          </mxGeometry>
        </mxCell>
        <mxCell id="Nd2pnIqYuC5M-7utuZWH-12" value="" style="edgeStyle=orthogonalEdgeStyle;rounded=0;orthogonalLoop=1;jettySize=auto;html=1;" edge="1" parent="1" source="Nd2pnIqYuC5M-7utuZWH-8" target="Nd2pnIqYuC5M-7utuZWH-11">
          <mxGeometry relative="1" as="geometry" />
        </mxCell>
        <mxCell id="Nd2pnIqYuC5M-7utuZWH-14" value="" style="edgeStyle=orthogonalEdgeStyle;rounded=0;orthogonalLoop=1;jettySize=auto;html=1;" edge="1" parent="1" source="Nd2pnIqYuC5M-7utuZWH-8" target="Nd2pnIqYuC5M-7utuZWH-13">
          <mxGeometry relative="1" as="geometry" />
        </mxCell>
        <mxCell id="Nd2pnIqYuC5M-7utuZWH-8" value="Data posterior do envento ou não ?" style="strokeWidth=2;html=1;shape=mxgraph.flowchart.decision;whiteSpace=wrap;" vertex="1" parent="1">
          <mxGeometry x="60" y="420" width="160" height="170" as="geometry" />
        </mxCell>
        <mxCell id="Nd2pnIqYuC5M-7utuZWH-49" style="edgeStyle=orthogonalEdgeStyle;rounded=0;orthogonalLoop=1;jettySize=auto;html=1;fontSize=15;" edge="1" parent="1" source="Nd2pnIqYuC5M-7utuZWH-11">
          <mxGeometry relative="1" as="geometry">
            <mxPoint x="736" y="670" as="targetPoint" />
          </mxGeometry>
        </mxCell>
        <mxCell id="Nd2pnIqYuC5M-7utuZWH-11" value="Cadastro não permitido por data inválida" style="rounded=0;whiteSpace=wrap;html=1;" vertex="1" parent="1">
          <mxGeometry x="60" y="630" width="160" height="80" as="geometry" />
        </mxCell>
        <mxCell id="Nd2pnIqYuC5M-7utuZWH-18" value="" style="edgeStyle=orthogonalEdgeStyle;rounded=0;orthogonalLoop=1;jettySize=auto;html=1;fontSize=15;" edge="1" parent="1" source="Nd2pnIqYuC5M-7utuZWH-13" target="Nd2pnIqYuC5M-7utuZWH-17">
          <mxGeometry relative="1" as="geometry" />
        </mxCell>
        <mxCell id="Nd2pnIqYuC5M-7utuZWH-13" value="Permitido" style="whiteSpace=wrap;html=1;strokeWidth=2;" vertex="1" parent="1">
          <mxGeometry x="320" y="472.5" width="150" height="65" as="geometry" />
        </mxCell>
        <mxCell id="Nd2pnIqYuC5M-7utuZWH-15" value="SIM" style="text;html=1;resizable=0;autosize=1;align=center;verticalAlign=middle;points=[];fillColor=none;strokeColor=none;rounded=0;fontSize=15;fontStyle=1" vertex="1" parent="1">
          <mxGeometry x="240" y="470" width="40" height="20" as="geometry" />
        </mxCell>
        <mxCell id="Nd2pnIqYuC5M-7utuZWH-16" value="&lt;font style=&quot;font-size: 15px&quot;&gt;NÃO&lt;/font&gt;" style="text;html=1;resizable=0;autosize=1;align=center;verticalAlign=middle;points=[];fillColor=none;strokeColor=none;rounded=0;fontStyle=1" vertex="1" parent="1">
          <mxGeometry x="155" y="590" width="50" height="20" as="geometry" />
        </mxCell>
        <mxCell id="Nd2pnIqYuC5M-7utuZWH-20" value="" style="edgeStyle=orthogonalEdgeStyle;rounded=0;orthogonalLoop=1;jettySize=auto;html=1;fontSize=15;" edge="1" parent="1" source="Nd2pnIqYuC5M-7utuZWH-17">
          <mxGeometry relative="1" as="geometry">
            <mxPoint x="395" y="270" as="targetPoint" />
          </mxGeometry>
        </mxCell>
        <mxCell id="Nd2pnIqYuC5M-7utuZWH-17" value="Faça o cadastramento de palestrantes" style="strokeWidth=2;html=1;shape=mxgraph.flowchart.display;whiteSpace=wrap;" vertex="1" parent="1">
          <mxGeometry x="315" y="320" width="160" height="90" as="geometry" />
        </mxCell>
        <mxCell id="Nd2pnIqYuC5M-7utuZWH-22" value="" style="edgeStyle=orthogonalEdgeStyle;rounded=0;orthogonalLoop=1;jettySize=auto;html=1;fontSize=15;" edge="1" parent="1" target="Nd2pnIqYuC5M-7utuZWH-21">
          <mxGeometry relative="1" as="geometry">
            <mxPoint x="395" y="190" as="sourcePoint" />
          </mxGeometry>
        </mxCell>
        <mxCell id="Nd2pnIqYuC5M-7utuZWH-24" value="" style="edgeStyle=orthogonalEdgeStyle;rounded=0;orthogonalLoop=1;jettySize=auto;html=1;fontSize=15;" edge="1" parent="1" source="Nd2pnIqYuC5M-7utuZWH-21">
          <mxGeometry relative="1" as="geometry">
            <mxPoint x="541.8499999999999" y="90" as="targetPoint" />
          </mxGeometry>
        </mxCell>
        <mxCell id="Nd2pnIqYuC5M-7utuZWH-21" value="Digite a Quantidade de participante" style="strokeWidth=2;html=1;shape=mxgraph.flowchart.display;whiteSpace=wrap;" vertex="1" parent="1">
          <mxGeometry x="300" y="30" width="190" height="120" as="geometry" />
        </mxCell>
        <mxCell id="Nd2pnIqYuC5M-7utuZWH-26" value="" style="edgeStyle=orthogonalEdgeStyle;rounded=0;orthogonalLoop=1;jettySize=auto;html=1;fontSize=15;" edge="1" parent="1" target="Nd2pnIqYuC5M-7utuZWH-25">
          <mxGeometry relative="1" as="geometry">
            <mxPoint x="688.1500000000001" y="90" as="sourcePoint" />
          </mxGeometry>
        </mxCell>
        <mxCell id="Nd2pnIqYuC5M-7utuZWH-28" value="" style="edgeStyle=orthogonalEdgeStyle;rounded=0;orthogonalLoop=1;jettySize=auto;html=1;fontSize=15;" edge="1" parent="1" source="Nd2pnIqYuC5M-7utuZWH-25" target="Nd2pnIqYuC5M-7utuZWH-27">
          <mxGeometry relative="1" as="geometry" />
        </mxCell>
        <mxCell id="Nd2pnIqYuC5M-7utuZWH-52" style="edgeStyle=orthogonalEdgeStyle;rounded=0;orthogonalLoop=1;jettySize=auto;html=1;entryX=0.5;entryY=0;entryDx=0;entryDy=0;fontSize=15;" edge="1" parent="1" source="Nd2pnIqYuC5M-7utuZWH-25" target="Nd2pnIqYuC5M-7utuZWH-50">
          <mxGeometry relative="1" as="geometry" />
        </mxCell>
        <mxCell id="Nd2pnIqYuC5M-7utuZWH-25" value="Menor que 100" style="rhombus;whiteSpace=wrap;html=1;fontSize=15;" vertex="1" parent="1">
          <mxGeometry x="750" y="35" width="130" height="110" as="geometry" />
        </mxCell>
        <mxCell id="Nd2pnIqYuC5M-7utuZWH-30" value="" style="edgeStyle=orthogonalEdgeStyle;rounded=0;orthogonalLoop=1;jettySize=auto;html=1;fontSize=15;" edge="1" parent="1" source="Nd2pnIqYuC5M-7utuZWH-27">
          <mxGeometry relative="1" as="geometry">
            <mxPoint x="815" y="320" as="targetPoint" />
          </mxGeometry>
        </mxCell>
        <mxCell id="Nd2pnIqYuC5M-7utuZWH-27" value="Informar idade" style="strokeWidth=2;html=1;shape=mxgraph.flowchart.display;whiteSpace=wrap;" vertex="1" parent="1">
          <mxGeometry x="740" y="180" width="150" height="100" as="geometry" />
        </mxCell>
        <mxCell id="Nd2pnIqYuC5M-7utuZWH-46" value="" style="edgeStyle=orthogonalEdgeStyle;rounded=0;orthogonalLoop=1;jettySize=auto;html=1;fontSize=15;" edge="1" parent="1" source="Nd2pnIqYuC5M-7utuZWH-31" target="Nd2pnIqYuC5M-7utuZWH-37">
          <mxGeometry relative="1" as="geometry" />
        </mxCell>
        <mxCell id="Nd2pnIqYuC5M-7utuZWH-31" value="Idade" style="html=1;strokeWidth=2;shape=manualInput;whiteSpace=wrap;rounded=1;size=26;arcSize=11;fontSize=15;" vertex="1" parent="1">
          <mxGeometry x="765" y="310" width="100" height="70" as="geometry" />
        </mxCell>
        <mxCell id="Nd2pnIqYuC5M-7utuZWH-33" value="Numero de Participantes" style="html=1;strokeWidth=2;shape=manualInput;whiteSpace=wrap;rounded=1;size=26;arcSize=11;fontSize=15;" vertex="1" parent="1">
          <mxGeometry x="550" y="50" width="140" height="80" as="geometry" />
        </mxCell>
        <mxCell id="Nd2pnIqYuC5M-7utuZWH-34" value="Cadastrar palestrante" style="html=1;strokeWidth=2;shape=manualInput;whiteSpace=wrap;rounded=1;size=26;arcSize=11;fontSize=15;" vertex="1" parent="1">
          <mxGeometry x="340" y="180" width="110" height="90" as="geometry" />
        </mxCell>
        <mxCell id="Nd2pnIqYuC5M-7utuZWH-35" value="Data" style="html=1;strokeWidth=2;shape=manualInput;whiteSpace=wrap;rounded=1;size=26;arcSize=11;fontSize=15;" vertex="1" parent="1">
          <mxGeometry x="85" y="280" width="120" height="90" as="geometry" />
        </mxCell>
        <mxCell id="Nd2pnIqYuC5M-7utuZWH-40" value="" style="edgeStyle=orthogonalEdgeStyle;rounded=0;orthogonalLoop=1;jettySize=auto;html=1;fontSize=15;" edge="1" parent="1" source="Nd2pnIqYuC5M-7utuZWH-37" target="Nd2pnIqYuC5M-7utuZWH-38">
          <mxGeometry relative="1" as="geometry" />
        </mxCell>
        <mxCell id="Nd2pnIqYuC5M-7utuZWH-41" value="" style="edgeStyle=orthogonalEdgeStyle;rounded=0;orthogonalLoop=1;jettySize=auto;html=1;fontSize=15;" edge="1" parent="1" source="Nd2pnIqYuC5M-7utuZWH-37" target="Nd2pnIqYuC5M-7utuZWH-39">
          <mxGeometry relative="1" as="geometry" />
        </mxCell>
        <mxCell id="Nd2pnIqYuC5M-7utuZWH-37" value="Possui 18 anos ?" style="strokeWidth=2;html=1;shape=mxgraph.flowchart.decision;whiteSpace=wrap;" vertex="1" parent="1">
          <mxGeometry x="735" y="410" width="160" height="170" as="geometry" />
        </mxCell>
        <mxCell id="Nd2pnIqYuC5M-7utuZWH-47" style="edgeStyle=orthogonalEdgeStyle;rounded=0;orthogonalLoop=1;jettySize=auto;html=1;fontSize=15;entryX=1;entryY=0.5;entryDx=0;entryDy=0;" edge="1" parent="1" source="Nd2pnIqYuC5M-7utuZWH-38" target="Nd2pnIqYuC5M-7utuZWH-44">
          <mxGeometry relative="1" as="geometry">
            <mxPoint x="1110" y="400" as="targetPoint" />
          </mxGeometry>
        </mxCell>
        <mxCell id="Nd2pnIqYuC5M-7utuZWH-38" value="Cadastro Não permitido" style="whiteSpace=wrap;html=1;strokeWidth=2;" vertex="1" parent="1">
          <mxGeometry x="740" y="620" width="150" height="65" as="geometry" />
        </mxCell>
        <mxCell id="Nd2pnIqYuC5M-7utuZWH-45" value="" style="edgeStyle=orthogonalEdgeStyle;rounded=0;orthogonalLoop=1;jettySize=auto;html=1;fontSize=15;" edge="1" parent="1" source="Nd2pnIqYuC5M-7utuZWH-39" target="Nd2pnIqYuC5M-7utuZWH-44">
          <mxGeometry relative="1" as="geometry" />
        </mxCell>
        <mxCell id="Nd2pnIqYuC5M-7utuZWH-39" value="Permitido" style="whiteSpace=wrap;html=1;strokeWidth=2;" vertex="1" parent="1">
          <mxGeometry x="940" y="462.5" width="150" height="65" as="geometry" />
        </mxCell>
        <mxCell id="Nd2pnIqYuC5M-7utuZWH-42" value="Não" style="text;html=1;resizable=0;autosize=1;align=center;verticalAlign=middle;points=[];fillColor=none;strokeColor=none;rounded=0;fontSize=15;fontStyle=1" vertex="1" parent="1">
          <mxGeometry x="820" y="590" width="40" height="20" as="geometry" />
        </mxCell>
        <mxCell id="Nd2pnIqYuC5M-7utuZWH-43" value="Sim" style="text;html=1;resizable=0;autosize=1;align=center;verticalAlign=middle;points=[];fillColor=none;strokeColor=none;rounded=0;fontSize=15;fontStyle=1" vertex="1" parent="1">
          <mxGeometry x="895" y="462.5" width="40" height="20" as="geometry" />
        </mxCell>
        <mxCell id="Nd2pnIqYuC5M-7utuZWH-44" value="Fim" style="ellipse;whiteSpace=wrap;html=1;fillColor=#dae8fc;strokeColor=#6c8ebf;" vertex="1" parent="1">
          <mxGeometry x="935" y="290" width="160" height="80" as="geometry" />
        </mxCell>
        <mxCell id="Nd2pnIqYuC5M-7utuZWH-51" value="" style="edgeStyle=orthogonalEdgeStyle;rounded=0;orthogonalLoop=1;jettySize=auto;html=1;fontSize=15;" edge="1" parent="1" source="Nd2pnIqYuC5M-7utuZWH-50" target="Nd2pnIqYuC5M-7utuZWH-44">
          <mxGeometry relative="1" as="geometry" />
        </mxCell>
        <mxCell id="Nd2pnIqYuC5M-7utuZWH-50" value="Limite máximo atingido" style="rounded=0;whiteSpace=wrap;html=1;" vertex="1" parent="1">
          <mxGeometry x="935" y="130" width="160" height="80" as="geometry" />
        </mxCell>
      </root>
    </mxGraphModel>
  </diagram>
</mxfile>
